<svg xmlns="http://www.w3.org/2000/svg" width="620" height="430" viewBox="0 0 620 430">
  <defs>
    <filter id="softShadow" x="-45%" y="-45%" width="190%" height="210%">
      <feDropShadow dx="1.5" dy="4" stdDeviation="2.2" flood-color="#244a35" flood-opacity=".18"/>
    </filter>
    <linearGradient id="trail" x1="0" y1="0" x2="0" y2="1">
      <stop offset="0" stop-color="#ffffff" stop-opacity="0"/>
      <stop offset=".18" stop-color="#ffffff" stop-opacity=".20"/>
      <stop offset=".62" stop-color="#5d8068" stop-opacity=".075"/>
      <stop offset="1" stop-color="#5d8068" stop-opacity="0"/>
    </linearGradient>
    <radialGradient id="bead" cx="34%" cy="26%" r="74%">
      <stop offset="0" stop-color="#ffffff" stop-opacity=".70"/>
      <stop offset=".26" stop-color="#ffffff" stop-opacity=".34"/>
      <stop offset=".70" stop-color="#ffffff" stop-opacity=".14"/>
      <stop offset="1" stop-color="#315a42" stop-opacity=".15"/>
    </radialGradient>
    <linearGradient id="edge" x1="0" y1="0" x2="0" y2="1">
      <stop offset="0" stop-color="#ffffff" stop-opacity=".28"/>
      <stop offset="1" stop-color="#315a42" stop-opacity=".16"/>
    </linearGradient>
  </defs>
  <rect width="620" height="430" fill="none"/>
  <g opacity=".88">
    <g filter="url(#softShadow)" transform="translate(64 70)">
      <rect x="-1.5" y="0" width="3" height="62" rx="1.5" fill="url(#trail)"/>
      <ellipse cx="0" cy="60" rx="7" ry="10.5" fill="url(#bead)" stroke="url(#edge)" stroke-width=".55"/>
      <ellipse cx="-2.3" cy="55" rx="2.2" ry="1.2" fill="#fff" opacity=".72"/>
    </g>
    <g filter="url(#softShadow)" transform="translate(188 292)">
      <rect x="-1.2" y="0" width="2.4" height="48" rx="1.2" fill="url(#trail)"/>
      <ellipse cx="0" cy="47" rx="5.6" ry="8.3" fill="url(#bead)" stroke="url(#edge)" stroke-width=".5"/>
      <ellipse cx="-1.9" cy="43" rx="1.8" ry="1" fill="#fff" opacity=".66"/>
    </g>
    <g filter="url(#softShadow)" transform="translate(328 108)">
      <rect x="-1.7" y="0" width="3.4" height="75" rx="1.7" fill="url(#trail)"/>
      <ellipse cx="0" cy="73" rx="8" ry="12" fill="url(#bead)" stroke="url(#edge)" stroke-width=".6"/>
      <ellipse cx="-2.6" cy="67" rx="2.5" ry="1.35" fill="#fff" opacity=".7"/>
    </g>
    <g filter="url(#softShadow)" transform="translate(501 248)">
      <rect x="-1.25" y="0" width="2.5" height="54" rx="1.25" fill="url(#trail)"/>
      <ellipse cx="0" cy="53" rx="5.8" ry="8.8" fill="url(#bead)" stroke="url(#edge)" stroke-width=".5"/>
      <ellipse cx="-2" cy="48.8" rx="1.8" ry="1" fill="#fff" opacity=".64"/>
    </g>
    <g filter="url(#softShadow)" transform="translate(557 68)">
      <rect x="-1" y="0" width="2" height="40" rx="1" fill="url(#trail)"/>
      <ellipse cx="0" cy="39" rx="4.8" ry="7.2" fill="url(#bead)" stroke="url(#edge)" stroke-width=".45"/>
      <ellipse cx="-1.6" cy="35.5" rx="1.5" ry=".85" fill="#fff" opacity=".62"/>
    </g>
    <g filter="url(#softShadow)" transform="translate(96 358)">
      <rect x="-1.1" y="0" width="2.2" height="42" rx="1.1" fill="url(#trail)"/>
      <ellipse cx="0" cy="41" rx="5" ry="7.4" fill="url(#bead)" stroke="url(#edge)" stroke-width=".45"/>
      <ellipse cx="-1.7" cy="37.3" rx="1.55" ry=".85" fill="#fff" opacity=".6"/>
    </g>
  </g>
</svg>
